<!-- Generated by IcoMoon.io -->
<svg version="1.1" xmlns="http://www.w3.org/2000/svg" width="32" height="32" viewBox="0 0 32 32">
<title>male</title>
<path fill="#23c2ef" d="M20.679 1.6c-0.884 0-1.6 0.716-1.6 1.6v0.81c0 0.884 0.716 1.6 1.6 1.6h2.804l-5.805 5.73c-1.629-1.047-3.57-1.655-5.655-1.655-5.756 0-10.423 4.637-10.423 10.357s4.667 10.358 10.423 10.358c5.756 0 10.422-4.638 10.422-10.358 0-2.174-0.674-4.192-1.826-5.858l5.707-5.672v2.738c0 0.884 0.716 1.6 1.6 1.6h0.835c0.884 0 1.6-0.716 1.602-1.6 0.007-2.602 0.027-5.453 0.033-8.051 0.002-0.884-0.714-1.599-1.598-1.599h-8.121zM12.023 13.854c3.439 0 6.227 2.77 6.227 6.188s-2.788 6.189-6.227 6.189c-3.439 0-6.228-2.771-6.228-6.189s2.789-6.188 6.228-6.188z"></path>
</svg>
