<svg width="20" height="20" viewBox="0 0 18 18" xmlns="http://www.w3.org/2000/svg">
    <path
        d="M9.00002 0.666992C4.40002 0.666992 0.666687 4.40033 0.666687 9.00033C0.666687 13.6003 4.40002 17.3337 9.00002 17.3337C13.6 17.3337 17.3334 13.6003 17.3334 9.00033C17.3334 4.40033 13.6 0.666992 9.00002 0.666992ZM9.00002 4.00033C10.6084 4.00033 11.9167 5.30866 11.9167 6.91699C11.9167 8.52533 10.6084 9.83366 9.00002 9.83366C7.39169 9.83366 6.08335 8.52533 6.08335 6.91699C6.08335 5.30866 7.39169 4.00033 9.00002 4.00033ZM9.00002 15.667C7.30835 15.667 5.30835 14.9837 3.88335 13.267C5.34302 12.1218 7.1447 11.4993 9.00002 11.4993C10.8553 11.4993 12.657 12.1218 14.1167 13.267C12.6917 14.9837 10.6917 15.667 9.00002 15.667Z" />
</svg>