<svg aria-hidden="true" style="position: absolute; width: 0; height: 0; overflow: hidden;" version="1.1" xmlns="http://www.w3.org/2000/svg" xmlns:xlink="http://www.w3.org/1999/xlink">
<defs>
<symbol id="icon-blackCross" viewBox="0 0 31 32">
<path d="M18.051 16l12.058-12.058c0.238-0.278 0.363-0.636 0.349-1.002s-0.166-0.713-0.425-0.972c-0.259-0.259-0.606-0.411-0.972-0.425s-0.724 0.11-1.002 0.349l-12.058 12.058-12.058-12.073c-0.274-0.274-0.645-0.428-1.033-0.428s-0.759 0.154-1.033 0.428c-0.274 0.274-0.428 0.645-0.428 1.033s0.154 0.759 0.428 1.033l12.073 12.058-12.073 12.058c-0.152 0.13-0.276 0.291-0.363 0.471s-0.136 0.377-0.144 0.577 0.026 0.4 0.099 0.587c0.073 0.187 0.184 0.356 0.326 0.498s0.311 0.253 0.498 0.326 0.386 0.107 0.587 0.099c0.2-0.008 0.397-0.057 0.577-0.144s0.341-0.211 0.471-0.363l12.073-12.058 12.058 12.058c0.278 0.238 0.636 0.363 1.002 0.349s0.713-0.166 0.972-0.425 0.411-0.606 0.425-0.972c0.014-0.366-0.11-0.724-0.349-1.002l-12.058-12.058z"></path>
</symbol>
<symbol id="icon-bigPlus" viewBox="0 0 50 52">
<path d="M25 50.1787V25.8887M25 25.8887V1.59863M25 25.8887H49M25 25.8887H1" stroke="#111111" stroke-opacity="0.6" stroke-width="2" stroke-linecap="round"/>
</symbol>
<symbol id="icon-photoCamera" viewBox="0 0 30 32">
<path d="M15.158 12.982c-2.519 0-4.561 2.042-4.561 4.561s2.042 4.561 4.561 4.561c2.519 0 4.561-2.042 4.561-4.561s-2.042-4.561-4.561-4.561z"></path>
<path d="M11.298 0.351c-1.938 0-3.509 1.571-3.509 3.509v0.251c0 0.637-0.516 1.153-1.153 1.153-3.627 0-6.566 2.94-6.566 6.566v6.471c0 2.25-0 4.015 0.134 5.424 0.137 1.437 0.42 2.613 1.055 3.65 0.665 1.086 1.578 1.999 2.664 2.664 1.037 0.635 2.213 0.919 3.65 1.055 1.409 0.134 3.173 0.134 5.424 0.134h4.321c2.25 0 4.014 0 5.424-0.134 1.437-0.137 2.613-0.42 3.65-1.055 1.086-0.665 1.999-1.578 2.664-2.664 0.635-1.037 0.919-2.213 1.055-3.65 0.134-1.409 0.134-3.174 0.134-5.424v-6.471c0-3.627-2.94-6.566-6.566-6.566-0.637 0-1.153-0.516-1.153-1.153v-0.251c0-1.938-1.571-3.509-3.509-3.509h-7.719zM8.491 17.544c0-3.682 2.985-6.667 6.667-6.667s6.667 2.985 6.667 6.667c0 3.682-2.985 6.667-6.667 6.667s-6.667-2.985-6.667-6.667zM23.579 13.333c-0.775 0-1.404-0.628-1.404-1.404s0.628-1.403 1.404-1.403c0.775 0 1.403 0.628 1.403 1.403s-0.628 1.404-1.403 1.404z"></path>
</symbol>
</defs>
</svg>
